<svg width="16" height="16" viewBox="0 0 16 16" fill="none" xmlns="http://www.w3.org/2000/svg">
<path fill-rule="evenodd" clip-rule="evenodd" d="M4.70008 3.75727C4.43973 3.49692 4.01762 3.49692 3.75727 3.75727C3.49692 4.01762 3.49692 4.43973 3.75727 4.70008L7.05711 7.99991L3.75727 11.2997C3.49692 11.5601 3.49692 11.9822 3.75727 12.2426C4.01762 12.5029 4.43973 12.5029 4.70008 12.2426L7.99991 8.94272L11.2997 12.2426C11.5601 12.5029 11.9822 12.5029 12.2426 12.2426C12.5029 11.9822 12.5029 11.5601 12.2426 11.2997L8.94272 7.99991L12.2426 4.70008C12.5029 4.43973 12.5029 4.01762 12.2426 3.75727C11.9822 3.49692 11.5601 3.49692 11.2997 3.75727L7.99991 7.05711L4.70008 3.75727Z" fill="#B31212"/>
</svg>
